<?xml version="1.0" standalone="no"?>
<!DOCTYPE svg PUBLIC "-//W3C//DTD SVG 20010904//EN" "http://www.w3.org/TR/2001/REC-SVG-20010904/DTD/svg10.dtd">
<svg version="1.0" xmlns="http://www.w3.org/2000/svg" width="500.000000pt" height="500.000000pt"
    viewBox="0 0 500.000000 500.000000" preserveAspectRatio="xMidYMid meet">

    <g transform="translate(0.000000,500.000000) scale(0.100000,-0.100000)" fill="#f4d80a"
        stroke="none">
        <path
            d="M1908 4166 c-47 -24 -108 -58 -134 -76 -91 -61 -88 -46 -33 -182 l48
                -120 -44 -44 -44 -45 -113 46 c-61 25 -118 45 -125 45 -30 0 -197 -292 -177
                -309 5 -4 51 -40 102 -80 50 -40 92 -78 92 -84 -1 -7 -7 -34 -14 -62 l-13 -50
                -129 -18 c-71 -10 -131 -21 -134 -24 -7 -7 -6 -340 1 -347 3 -3 57 -13 120
                -21 63 -9 120 -19 128 -24 13 -6 40 -80 41 -108 0 -7 -44 -47 -97 -89 -54 -42
                -100 -79 -102 -80 -12 -10 78 -172 170 -306 3 -4 60 14 127 41 l121 49 45 -44
                44 -45 -48 -119 -48 -120 36 -28 c71 -55 267 -162 276 -151 1 2 23 30 49 62
                l47 59 0 289 0 288 -62 64 c-74 76 -120 148 -156 249 -23 64 -26 88 -27 203 0
                111 3 140 24 200 33 99 91 193 161 262 l60 60 0 288 0 288 -47 63 c-27 35 -51
                64 -54 64 -3 0 -44 -20 -91 -44z" />
        <path
            d="M2948 4146 l-48 -63 0 -287 0 -288 60 -60 c73 -73 131 -168 162 -268
                33 -107 33 -284 0 -385 -32 -96 -93 -196 -163 -266 l-59 -59 0 -289 0 -289 47
                -59 c26 -32 48 -60 49 -62 9 -11 205 96 276 151 l36 28 -48 121 -49 120 44 44
                44 44 122 -50 c68 -27 123 -48 124 -46 46 54 185 302 174 310 -2 2 -48 39
                -101 81 -54 42 -98 82 -98 89 1 28 28 102 41 108 8 5 65 15 128 24 63 8 117
                18 120 21 7 7 8 340 1 347 -3 3 -63 14 -134 24 l-129 18 -13 50 c-7 28 -13 55
                -14 62 0 6 42 44 93 84 50 40 96 76 101 80 20 17 -147 309 -177 309 -7 0 -64
                -21 -126 -46 l-114 -45 -43 44 -44 43 49 123 50 122 -42 30 c-73 53 -254 153
                -270 149 -1 -1 -23 -29 -49 -64z" />
        <path
            d="M2150 3305 l0 -345 50 0 50 0 2 288 c3 247 5 287 18 287 13 0 15 -40
                18 -287 l2 -288 50 0 50 0 -2 343 -3 342 -117 3 -118 3 0 -346z" />
        <path
            d="M2704 3597 c-2 -7 -3 -60 -2 -118 3 -90 5 -104 21 -107 14 -3 17 4
                17 42 0 44 1 46 30 46 67 0 96 88 44 129 -31 24 -102 29 -110 8z m90 -53 c9
                -22 -1 -34 -30 -34 -19 0 -24 5 -24 25 0 20 5 25 24 25 13 0 27 -7 30 -16z" />
        <path
            d="M2562 3477 c-18 -21 9 -39 50 -35 25 2 33 8 33 23 0 16 -8 21 -36 23
                -22 2 -40 -2 -47 -11z" />
        <path
            d="M2700 3155 c0 -108 1 -115 20 -115 16 0 20 7 20 32 l0 32 33 -32 c18
                -18 41 -32 50 -32 28 0 20 36 -14 64 -17 15 -24 26 -16 26 24 0 47 35 47 72 0
                49 -25 68 -88 68 l-52 0 0 -115z m90 60 c16 -19 -3 -45 -31 -45 -14 0 -19 7
                -19 30 0 23 5 30 19 30 10 0 24 -7 31 -15z" />
        <path
            d="M2557 3166 c-9 -22 17 -38 55 -34 25 2 33 8 33 23 0 16 -8 21 -41 23
                -29 2 -43 -1 -47 -12z" />
        <path
            d="M2704 2927 c-2 -7 -3 -60 -2 -118 2 -84 6 -104 18 -104 11 0 16 15
                18 59 l3 60 33 -60 c50 -90 60 -81 64 59 2 109 1 118 -15 115 -14 -2 -19 -16
                -23 -56 l-5 -54 -30 56 c-29 55 -50 69 -61 43z" />
        <path
            d="M2078 2909 c-15 -8 -18 -24 -18 -82 0 -44 5 -78 12 -85 17 -17 379
                -17 396 0 7 7 12 41 12 85 0 61 -3 74 -19 83 -26 13 -360 13 -383 -1z" />
        <path
            d="M2563 2839 c-21 -21 -3 -39 38 -39 42 0 64 24 38 41 -20 12 -63 11
                -76 -2z" />
        <path
            d="M2152 2503 l3 -178 95 -3 c153 -5 140 -21 140 183 l0 175 -50 0 -49
                0 -3 -117 c-2 -97 -6 -118 -18 -118 -12 0 -16 21 -18 118 l-3 117 -50 0 -49 0
                2 -177z" />
        <path
            d="M2704 2597 c-2 -7 -3 -60 -2 -118 l3 -104 43 -3 c28 -2 53 3 68 13
                22 14 24 22 24 98 0 45 -4 87 -8 93 -21 32 -117 48 -128 21z m91 -107 c0 -63
                -1 -65 -27 -68 l-28 -3 0 71 0 71 28 -3 c26 -3 27 -5 27 -68z" />
        <path
            d="M2556 2495 c-6 -16 21 -35 52 -35 23 0 46 25 37 40 -10 16 -82 12
                -89 -5z" />
        <path
            d="M1090 1355 l0 -146 33 3 c30 3 32 5 29 40 -9 97 33 106 78 18 28 -56
                33 -60 65 -60 19 0 35 3 35 8 -1 4 -16 36 -34 70 l-32 64 22 46 c12 26 25 59
                29 75 7 25 5 27 -24 27 -28 0 -34 -5 -47 -37 -23 -59 -29 -68 -54 -71 -30 -5
                -41 14 -38 63 3 38 1 40 -30 43 l-32 3 0 -146z" />
        <path
            d="M1452 1363 c-29 -76 -52 -141 -52 -145 0 -5 14 -8 30 -8 23 0 33 6
                42 25 10 22 17 25 65 25 48 0 54 -3 63 -25 8 -20 16 -25 44 -25 l34 0 -54 141
                c-30 77 -54 142 -54 145 0 2 -15 4 -33 4 l-34 0 -51 -137z m117 -40 c1 -8 -12
                -13 -34 -13 -19 0 -35 1 -35 3 0 2 8 26 17 52 l16 50 18 -40 c10 -22 18 -46
                18 -52z" />
        <path
            d="M1750 1356 l0 -146 35 0 c34 0 35 1 35 39 l0 38 52 5 c40 4 57 11 75
                32 32 38 32 105 -1 143 -23 26 -31 28 -110 32 l-86 3 0 -146z m152 58 c17 -36
                0 -58 -46 -62 l-36 -3 0 45 c0 46 0 46 35 46 28 0 38 -5 47 -26z" />
        <path
            d="M2124 1490 c-32 -13 -71 -65 -78 -104 -9 -50 8 -107 44 -141 39 -37
                126 -47 176 -20 37 20 74 85 74 130 0 42 -35 108 -69 128 -31 18 -110 22 -147
                7z m123 -72 c34 -37 34 -97 1 -128 -29 -27 -85 -27 -115 2 -31 29 -32 92 -1
                125 29 31 87 31 115 1z" />
        <path
            d="M2430 1355 l0 -145 35 0 34 0 3 83 3 82 30 -47 c41 -65 63 -64 106 4
                l34 53 3 -88 3 -87 29 0 30 0 0 145 0 145 -27 0 c-24 0 -36 -12 -77 -76 l-49
                -75 -50 76 c-43 64 -54 75 -78 75 l-29 0 0 -145z" />
        <path
            d="M2925 1491 c-6 -10 -105 -271 -105 -277 0 -2 15 -4 34 -4 28 0 35 4
                40 25 6 23 11 25 65 25 54 0 59 -2 65 -25 5 -21 12 -25 41 -25 l34 0 -25 68
                c-86 228 -83 222 -114 222 -16 0 -31 -4 -35 -9z m58 -138 l17 -43 -41 0 c-29
                0 -39 4 -35 13 2 6 10 29 17 50 14 42 19 40 42 -20z" />
        <path
            d="M3150 1470 c0 -29 2 -30 45 -30 l45 0 0 -115 0 -115 35 0 35 0 0 115
                0 115 40 0 c38 0 40 2 40 30 l0 30 -120 0 -120 0 0 -30z" />
        <path d="M3480 1355 l0 -145 30 0 30 0 0 145 0 145 -30 0 -30 0 0 -145z" />
        <path
            d="M3702 1480 c-38 -23 -62 -73 -62 -125 0 -90 56 -145 149 -145 49 0
                57 3 92 39 22 21 39 46 39 55 0 26 -49 20 -76 -9 -23 -25 -63 -32 -99 -19 -26
                10 -48 62 -40 100 12 64 94 87 139 39 26 -28 76 -35 76 -10 0 8 -15 32 -34 52
                -30 33 -39 37 -92 40 -47 3 -66 0 -92 -17z" />
    </g>
</svg>